<svg xmlns="http://www.w3.org/2000/svg" xmlns:xlink="http://www.w3.org/1999/xlink"  aria-hidden="true" role="img"  width="396" height="109.73982269096216" viewBox="0 0 370 102.53468281731313" class="looka-1j8o68f"><defs id="SvgjsDefs2354"></defs><g id="SvgjsG2355" featurekey="rDwwlG-0" transform="matrix(1.0253570761114377,0,0,1.0253570761114377,-1.2683662024872135,0)" fill="#5b6f8b"><g xmlns="http://www.w3.org/2000/svg"><g><path d="M81.111,17.61l-5.547,4.876l6.451-0.537l1.101,2.16l6.661,0.871l5.299,0.885c-0.794-1.438-1.657-2.825-2.585-4.168    l-1.628-0.095l-3.493-3.949l0.823,2.82l-2.283,1.88V21.01L81.111,17.61z"></path><path d="M42.964,99.335l0.958-0.058l5.847-7.053l3.03,7.775c21.479-0.648,39.534-14.794,45.965-34.271l-3.851,6.342l-6.649,1.613    c0,0-4.438-12.295-4.236-12.899c0.205-0.604-0.803-13.91-1.408-14.313c-0.602-0.403-11.893-1.408-11.893-1.408l-4.631-12.497    l7.852-9.676l-2.211-4.834l3.828-3.026l5.748-4.943c-1.305-0.983-2.66-1.897-4.061-2.752l1.618,3.529l-3.039,1.707l-2.688-1.099    l1.062-2.397l0.416-2.842l0.558-0.159c-1.771-0.964-3.617-1.786-5.512-2.535l-1.962-0.195l0.563-0.32    c-1.412-0.509-2.852-0.953-4.314-1.34l-5.521,1.66l-2.22,3.022l-2.614-0.605l0.438-5.619C53.116,0.09,52.207,0,51.279,0    C50.27,0,49.287,0.092,48.3,0.15l0.258,0.167L46.54,3.342h-3.426L39.486,1.93l-9.272,4.64l3.627,2.818l5.04-3.63h6.452    l2.417,5.845l-8.062,5.242l-7.654,5.04l-4.237,4.431L27.6,30.351l-6.856-3.026l-4.838,2.417l1.614,5.443l4.435-1.816l5.439,8.466    l5.842-2.619l12.501,6.649l9.875,8.062l-4.027,10.08c0,0-8.667,12.698-8.47,11.892c0.197-0.807-3.022,5.439-3.022,5.439    l2.014,6.447l-6.045-3.824L32.232,63.4l-6.654-10.276l1.417-9.676l-9.273-5.646l-6.65-2.619L6.865,27.04    c-3.576,6.89-5.628,14.699-5.628,22.997C1.236,74.835,19.292,95.368,42.964,99.335z M31.223,35.992l-6.25-3.426l9.273,1.412    L31.223,35.992z"></path></g></g></g><g id="SvgjsG2356" featurekey="4AZ1rv-0" transform="matrix(1.6151957744648826,0,0,1.6151957744648826,119.41853171237,32.150150631004855)" fill="#111111"><path d="M23.58 5.5600000000000005 c-0.25334 0 -0.42666 0.10666 -0.52 0.32 l-4.86 10.92 l-5.96 -11.94 l-5.98 11.94 l-4.86 -10.92 c-0.09334 -0.21334 -0.26 -0.32 -0.5 -0.32 c-0.36 0 -0.54 0.18 -0.54 0.54 c0 0.08 0.01334 0.16 0.04 0.24 l5.8 13.08 l6.04 -12.06 l6.02 12.06 l5.82 -13.08 c0.02666 -0.06666 0.04 -0.14 0.04 -0.22 c0 -0.37334 -0.18 -0.56 -0.54 -0.56 z M33.84 5.220000000000001 c-2.4266 0 -4.5066 0.66 -6.24 1.98 c-1.7733 1.3467 -2.66 2.9866 -2.66 4.92 s0.88666 3.5734 2.66 4.92 c1.72 1.3067 3.8 1.96 6.24 1.96 s4.5134 -0.65334 6.22 -1.96 c1.7733 -1.36 2.66 -3 2.66 -4.92 s-0.88666 -3.56 -2.66 -4.92 c-1.7333 -1.32 -3.8066 -1.98 -6.22 -1.98 z M41.62 12.120000000000001 c0 1.5867 -0.76 2.9434 -2.28 4.07 s-3.3534 1.69 -5.5 1.69 s-3.98 -0.56334 -5.5 -1.69 s-2.28 -2.4834 -2.28 -4.07 c0 -1.6 0.76 -2.9634 2.28 -4.09 s3.3534 -1.69 5.5 -1.69 s3.98 0.56334 5.5 1.69 s2.28 2.49 2.28 4.09 z M60.86 17.54 l-4.48 -2.98 l0.16 0 c1.2667 0 2.3434 -0.44666 3.23 -1.34 s1.33 -1.9667 1.33 -3.22 c0 -1.2667 -0.44334 -2.3434 -1.33 -3.23 s-1.9633 -1.33 -3.23 -1.33 l-12.56 0 l0 12.56 c0 0.37334 0.18666 0.56 0.56 0.56 s0.56 -0.18666 0.56 -0.56 l0 -3.44 l9.28 0 l5.86 3.9 c0.09334 0.06666 0.19334 0.1 0.3 0.1 c0.2 0 0.35334 -0.08666 0.46 -0.26 c0.06666 -0.09334 0.1 -0.19334 0.1 -0.3 c0 -0.2 -0.08 -0.35334 -0.24 -0.46 z M45.099999999999994 6.5600000000000005 l11.44 0 c0.94666 0 1.7567 0.33666 2.43 1.01 s1.01 1.4833 1.01 2.43 s-0.33666 1.7567 -1.01 2.43 s-1.4833 1.01 -2.43 1.01 l-11.44 0 l0 -6.88 z M79.46 17.56 l-15.44 0 l0 -11.44 c0 -0.37334 -0.18666 -0.56 -0.56 -0.56 s-0.56 0.18666 -0.56 0.56 l0 12.54 l16.56 0 c0.37334 0 0.56 -0.18 0.56 -0.54 c0 -0.37334 -0.18666 -0.56 -0.56 -0.56 z M94.2 5.82 c-0.72 -0.25334 -1.4467 -0.38 -2.18 -0.38 l-10.56 0 l0 13.12 l10.56 0 c0.73334 0 1.46 -0.12666 2.18 -0.38 c1.3067 -0.45334 2.3634 -1.25 3.17 -2.39 s1.21 -2.4034 1.21 -3.79 s-0.40334 -2.65 -1.21 -3.79 s-1.8633 -1.9367 -3.17 -2.39 z M93.84 17.14 c-0.56 0.2 -1.1667 0.30008 -1.82 0.30008 l-9.44 0 l0 -10.88 l9.44 0 c0.65334 0 1.26 0.1 1.82 0.3 c1.08 0.38666 1.9533 1.0533 2.62 2 s1 1.9933 1 3.14 s-0.33334 2.1934 -1 3.14 s-1.54 1.6133 -2.62 2 z M108.68 5.220000000000001 c-2.4266 0 -4.5066 0.66 -6.24 1.98 c-1.7733 1.3467 -2.66 2.9866 -2.66 4.92 s0.88666 3.5734 2.66 4.92 c1.72 1.3067 3.8 1.96 6.24 1.96 s4.5134 -0.65334 6.22 -1.96 c1.7733 -1.36 2.66 -3 2.66 -4.92 s-0.88666 -3.56 -2.66 -4.92 c-1.7333 -1.32 -3.8066 -1.98 -6.22 -1.98 z M116.46 12.120000000000001 c0 1.5867 -0.76 2.9434 -2.28 4.07 s-3.3534 1.69 -5.5 1.69 s-3.98 -0.56334 -5.5 -1.69 s-2.28 -2.4834 -2.28 -4.07 c0 -1.6 0.76 -2.9634 2.28 -4.09 s3.3534 -1.69 5.5 -1.69 s3.98 0.56334 5.5 1.69 s2.28 2.49 2.28 4.09 z M119.1 6.119999999999999 l0.000019531 7.76 c0 1.8667 0.97334 3.24 2.92 4.12 c1.4667 0.66666 3.3466 1 5.64 1 c2.3066 0 4.1934 -0.33334 5.66 -1 c1.9333 -0.88 2.9 -2.2534 2.9 -4.12 l0 -7.76 c0 -0.37334 -0.18666 -0.56 -0.56 -0.56 s-0.56 0.18666 -0.56 0.56 l0 0 l0 7.76 c0 1.5733 -0.96 2.6934 -2.88 3.36 c-1.24 0.42666 -2.76 0.64 -4.56 0.64 s-3.32 -0.21334 -4.56 -0.64 c-1.92 -0.66666 -2.88 -1.7867 -2.88 -3.36 l0 -7.76 c0 -0.37334 -0.18666 -0.56 -0.56 -0.56 s-0.56 0.18666 -0.56 0.56 z M138.02 14 c0 1.3733 0.82666 2.53 2.48 3.47 s3.68 1.41 6.08 1.41 c2.3866 0 4.3334 -0.26 5.84 -0.78 c1.8133 -0.62666 2.72 -1.5467 2.72 -2.76 c0 -1.2667 -0.77334 -2.18 -2.32 -2.74 c-0.88 -0.32 -2.5934 -0.65334 -5.14 -1 l-1.98 -0.28 c-2.4134 -0.34666 -4.0134 -0.65332 -4.8 -0.91998 c-1.1733 -0.4 -1.76 -0.98 -1.76 -1.74 c0 -0.72 0.69334 -1.3067 2.08 -1.76 s3.1734 -0.68 5.36 -0.68 c2.0134 0 3.7566 0.37334 5.23 1.12 s2.21 1.6333 2.21 2.66 l0 0 c0 0.37334 0.18666 0.56 0.56 0.56 s0.56 -0.18666 0.56 -0.56 l0 0 c0 -1.3733 -0.82666 -2.53 -2.48 -3.47 s-3.68 -1.41 -6.08 -1.41 c-2.3866 0 -4.3334 0.26 -5.84 0.78 c-1.8133 0.62666 -2.72 1.5467 -2.72 2.76 c0 1.2667 0.80666 2.1866 2.42 2.76 c0.77334 0.26666 2.48 0.6 5.12 1 l0.94 0.14 l1.02 0.14 c2.44 0.33334 4.06 0.64 4.86 0.92 c1.0933 0.37334 1.64 0.94668 1.64 1.72 c0 0.72 -0.69334 1.3067 -2.08 1.76 s-3.1734 0.68 -5.36 0.68 c-2.0134 0 -3.7566 -0.37334 -5.23 -1.12 s-2.21 -1.6333 -2.21 -2.66 l0 0 c0 -0.37334 -0.18666 -0.56 -0.56 -0.56 s-0.56 0.18666 -0.56 0.56 z"></path></g></svg>