<svg xmlns="http://www.w3.org/2000/svg" xmlns:xlink="http://www.w3.org/1999/xlink" width="314.27854876530836" height="304.9200042724609" viewBox="0 0 160 155.23554144965277" class="looka-1j8o68f"><defs id="SvgjsDefs1854"></defs><g id="SvgjsG1855" featurekey="rDwwlG-0" transform="matrix(1.7777777777777777,0,0,1.7777777777777777,-8.88888888888889,-11.269335428873697)" fill="#5b6f8b"><g xmlns="http://www.w3.org/2000/svg"><path d="M94.973,71.267h0.003L95,71.21C94.99,71.229,94.983,71.248,94.973,71.267z"></path><path d="M76.963,46.598l-12.255-0.782L61.58,34.604l6.518-9.126l-1.304-5.107l6.012-6.771c-0.249-0.165-0.515-0.306-0.767-0.466   l-6.2,2.389l2.174-4.65c-3.124-1.548-6.445-2.751-9.938-3.518l-4.403,3.956c0,0-3.303-0.435-4.997-0.695   c-1.006-0.155-0.817-2.441-0.498-4.277c-1.461,0.016-2.906,0.099-4.329,0.256l-0.258,0.632h-2.607l-0.524-0.115   c-3.982,0.759-7.756,2.074-11.275,3.835l1.631,1.495l9.647-2.868l3.129,5.949L26.38,27.948l-1.825,3.779l-3.911-2.599l-5.215,2.599   l-0.261,3.137l2.347,1.304l3.129-1.043l5.215,7.272l5.215-2.057l10.821,5.084l9.908,8.344l-4.041,9.716l-9.647,13.619v6.998   l-4.693-2.389l-2.868-19.992l-5.997-7.301v-9.908l-8.344-5.997L9.954,36.69L8.48,32.888C6.243,38.141,5,43.918,5,49.987   c0,21.842,16.051,39.885,36.99,43.109l3.337-5.303l2.389,5.818c0.321,0.007,0.634,0.048,0.957,0.048   c16.616,0,31.061-9.281,38.443-22.94h-5.199L76.963,46.598z M29.77,36.951h-1.89l-3.194-3.129l3.781,0.652h2.607L29.77,36.951z"></path><path d="M75.79,24.106l3.194,3.842l6.971-0.623c-1.311-2.151-2.792-4.18-4.443-6.066l-0.507,2.916l-5.867-3.911l-4.824,3.911   L75.79,24.106z"></path></g></g><g id="SvgjsG1856" featurekey="4AZ1rv-0" transform="matrix(1,0,0,1,80,175)" fill="#111111"><path d=""></path></g></svg>